<svg width="93" height="37" viewBox="0 0 93 37" fill="none" xmlns="http://www.w3.org/2000/svg">
<path d="M0.26 28L9.692 1.828H13.04L22.472 28H18.8L11.492 6.904L11.24 5.86L10.988 6.904L6.956 18.46L6.56 19.216L6.992 19.144H11.852C12.428 19.144 12.908 19.264 13.292 19.504C13.688 19.744 14.012 20.062 14.264 20.458C14.528 20.854 14.744 21.28 14.912 21.736H5.84L3.68 28H0.26ZM26.7748 28V0.711999H30.0508V28H26.7748ZM36.0595 36.676V15.544C36.0595 14.104 35.9995 12.874 35.8795 11.854C35.7595 10.834 35.6275 10.012 35.4835 9.388H37.8955C38.2075 9.64 38.4535 9.904 38.6335 10.18C38.8255 10.456 38.9995 10.84 39.1555 11.332L39.2275 11.908L39.5155 11.26C40.2715 10.432 41.1295 9.856 42.0895 9.532C43.0495 9.196 43.9075 9.028 44.6635 9.028C46.3435 9.028 47.7715 9.46 48.9475 10.324C50.1235 11.176 51.0175 12.34 51.6295 13.816C52.2415 15.292 52.5475 16.948 52.5475 18.784C52.5475 20.224 52.3195 21.526 51.8635 22.69C51.4075 23.842 50.7835 24.832 49.9915 25.66C49.1995 26.488 48.3055 27.124 47.3095 27.568C46.3135 28 45.2755 28.216 44.1955 28.216C43.6555 28.216 43.0795 28.168 42.4675 28.072C41.8675 27.988 41.2435 27.832 40.5955 27.604C40.9435 27.004 41.3875 26.518 41.9275 26.146C42.4675 25.774 43.1515 25.6 43.9795 25.624C44.8075 25.648 45.6055 25.426 46.3735 24.958C47.1415 24.49 47.7655 23.752 48.2455 22.744C48.7375 21.724 48.9835 20.404 48.9835 18.784C48.9835 17.392 48.7975 16.156 48.4255 15.076C48.0535 13.996 47.5015 13.15 46.7695 12.538C46.0495 11.926 45.1555 11.62 44.0875 11.62C43.2835 11.62 42.4795 11.836 41.6755 12.268C40.8835 12.688 40.1155 13.348 39.3715 14.248V36.676H36.0595ZM57.3591 28V0.711999H60.7071V28H57.3591ZM68.9871 28V14.464C68.9871 13.636 68.8251 12.958 68.5011 12.43C68.1891 11.89 67.6791 11.62 66.9711 11.62C66.6831 11.62 66.4431 11.65 66.2511 11.71C66.0711 11.77 65.8191 11.836 65.4951 11.908C64.7991 12.064 64.1631 12.07 63.5871 11.926C63.0111 11.782 62.4711 11.452 61.9671 10.936C63.2511 10.18 64.3131 9.676 65.1531 9.424C65.9931 9.16 66.7431 9.028 67.4031 9.028C68.3271 9.028 69.1671 9.202 69.9231 9.55C70.6911 9.898 71.3031 10.492 71.7591 11.332C72.2151 12.172 72.4431 13.336 72.4431 14.824V28H68.9871ZM83.0282 28.36C81.7802 28.36 80.7002 28.138 79.7882 27.694C78.8882 27.238 78.1922 26.626 77.7002 25.858C77.2202 25.09 76.9802 24.22 76.9802 23.248C76.9802 22.036 77.2982 21.034 77.9342 20.242C78.5702 19.438 79.6142 18.79 81.0662 18.298C82.5302 17.806 84.4922 17.416 86.9522 17.128C86.9042 17.416 86.7962 17.758 86.6282 18.154C86.4722 18.55 86.2142 18.916 85.8542 19.252C85.4942 19.588 84.9962 19.804 84.3602 19.9C83.3042 20.068 82.5002 20.314 81.9482 20.638C81.4082 20.962 81.0362 21.334 80.8322 21.754C80.6402 22.162 80.5442 22.588 80.5442 23.032C80.5442 23.764 80.8082 24.406 81.3362 24.958C81.8642 25.498 82.5842 25.768 83.4962 25.768C84.3122 25.768 85.1342 25.564 85.9622 25.156C86.7902 24.748 87.5522 24.088 88.2482 23.176V16.444C88.2482 15.016 87.9002 13.858 87.2042 12.97C86.5202 12.07 85.3562 11.62 83.7122 11.62C83.0642 11.62 82.4222 11.686 81.7862 11.818C81.1502 11.95 80.4002 12.172 79.5362 12.484L78.7082 10.252C79.8842 9.748 80.9222 9.418 81.8222 9.262C82.7222 9.106 83.5682 9.028 84.3602 9.028C86.6642 9.028 88.4522 9.7 89.7242 11.044C90.9962 12.376 91.6322 14.26 91.6322 16.696V21.844C91.6322 23.284 91.6862 24.514 91.7942 25.534C91.9142 26.542 92.0522 27.364 92.2082 28H89.7602C89.4242 27.796 89.1602 27.532 88.9682 27.208C88.7762 26.884 88.6082 26.536 88.4642 26.164L88.4282 25.516L88.0322 26.164C87.1202 27.076 86.2742 27.67 85.4942 27.946C84.7142 28.222 83.8922 28.36 83.0282 28.36Z" fill="black" style="fill:black;fill-opacity:1;"/>
</svg>
