<svg width="112" height="96" viewBox="0 0 112 96" fill="none" xmlns="http://www.w3.org/2000/svg">
<path d="M88.3739 29.6727C86.8413 31.654 81.3474 36.8432 76.3958 40.9474C71.6564 44.8628 70.9491 45.594 69.3221 47.9764C68.5912 49.085 68.5676 49.1085 69.1099 48.967C70.4303 48.5896 74.1558 46.5847 76.7495 44.8393C82.5971 40.9238 85.5444 37.4329 88.3268 31.1351C88.9162 29.8142 89.3407 28.682 89.2935 28.6348C89.2463 28.5877 88.8455 29.0594 88.3739 29.6727Z" fill="#FF0000" style="fill:#FF0000;fill:color(display-p3 1.0000 0.0000 0.0000);fill-opacity:1;"/>
<path d="M25.6661 29.2947C27.1988 31.2761 32.6927 36.4653 37.6442 40.5694C42.3836 44.4849 43.091 45.2161 44.7179 47.5984C45.4489 48.707 45.4724 48.7306 44.9301 48.5891C43.6097 48.2117 39.8842 46.2068 37.2905 44.4613C31.443 40.5458 28.4956 37.0549 25.7133 30.7571C25.1238 29.4363 24.6994 28.3041 24.7465 28.2569C24.7937 28.2097 25.1945 28.6815 25.6661 29.2947Z" fill="#FF0000" style="fill:#FF0000;fill:color(display-p3 1.0000 0.0000 0.0000);fill-opacity:1;"/>
</svg>
