<svg width="312" height="312" viewBox="0 0 112 96" fill="black" xmlns="http://www.w3.org/2000/svg">
<path d="M35.3226 35.1576C35.3749 34.9475 35.6251 34.9475 35.6774 35.1576L36.9923 40.4375C37.0274 40.5786 36.9385 40.7202 36.8148 40.7202H34.1852C34.0615 40.7202 33.9726 40.5786 34.0077 40.4375L35.3226 35.1576Z"/>
<path d="M35.3226 45.8424C35.3749 46.0525 35.6251 46.0525 35.6774 45.8424L36.9923 40.5625C37.0274 40.4214 36.9385 40.2798 36.8148 40.2798H34.1852C34.0615 40.2798 33.9726 40.4214 34.0077 40.5625L35.3226 45.8424Z"/>
<path d="M79.3226 35.1576C79.3749 34.9475 79.6251 34.9475 79.6774 35.1576L80.9923 40.4375C81.0274 40.5786 80.9385 40.7202 80.8148 40.7202H78.1852C78.0615 40.7202 77.9726 40.5786 78.0077 40.4375L79.3226 35.1576Z"/>
<path d="M79.3226 45.8424C79.3749 46.0525 79.6251 46.0525 79.6774 45.8424L80.9923 40.5625C81.0274 40.4214 80.9385 40.2798 80.8148 40.2798H78.1852C78.0615 40.2798 77.9726 40.4214 78.0077 40.5625L79.3226 45.8424Z"/>
</svg>