<svg width="93" height="84" viewBox="0 0 93 84" fill="none" xmlns="http://www.w3.org/2000/svg">
<path d="M80.3449 3.16649C80.2977 9.71776 77.256 16.269 71.1255 23.0688C70.3002 23.9724 69.64 24.7857 69.64 24.8534C69.64 25.0568 72.1865 23.6336 73.6249 22.617C75.5819 21.239 78.435 18.5507 79.9204 16.6757C80.6514 15.7494 81.3116 15.004 81.3823 15.004C81.8303 15.004 80.5806 24.1531 79.6375 27.745C78.5764 31.7662 76.0063 37.1201 72.7289 42.1127C71.1491 44.5073 71.0783 44.6428 71.9272 43.8973C72.4223 43.4455 73.2476 42.7452 73.7428 42.316C75.1339 41.1413 78.5293 37.2783 80.2741 34.8837C85.0606 28.2872 87.7251 20.4031 87.0649 14.778C86.7348 11.909 86.051 9.78553 84.4712 6.7358C83.4809 4.77042 82.6792 3.59571 81.7124 2.57914L80.3684 1.17852L80.3449 3.16649Z" fill="white" style="fill:white;fill-opacity:1;"/>
<path d="M77.3739 24.447C75.8412 26.3446 70.3473 31.3146 65.3957 35.2453C60.6564 38.9954 59.949 39.6957 58.3221 41.9773C57.5911 43.0391 57.5675 43.0617 58.1099 42.9261C59.4303 42.5647 63.1557 40.6445 65.7494 38.9728C71.597 35.2227 74.5444 31.8793 77.3267 25.8477C77.9162 24.5826 78.3406 23.4982 78.2934 23.453C78.2463 23.4079 77.8454 23.8597 77.3739 24.447Z" fill="#FF0000" style="fill:#FF0000;fill:color(display-p3 1.0000 0.0000 0.0000);fill-opacity:1;"/>
<path d="M88.0552 28.8973C86.947 32.1052 85.4615 35.1097 83.7402 37.5495C81.8539 40.2378 78.1756 44.3041 75.1575 47.0601C73.3183 48.7544 72.7053 49.387 73.4126 48.9578C74.0021 48.5737 75.7941 47.5345 77.4211 46.6309C81.3823 44.3945 82.8206 43.4682 85.32 41.4803C88.8568 38.679 92.04 35.0871 92.04 33.8672C92.04 33.5962 91.7335 32.7829 91.3562 32.0374C91.0025 31.3145 90.3895 29.7332 90.0358 28.5585C89.6821 27.3837 89.3048 26.322 89.2105 26.2316C89.1162 26.1187 88.5975 27.316 88.0552 28.8973Z" fill="white" style="fill:white;fill-opacity:1;"/>
<path d="M43.5616 37.1655C42.2412 37.4591 40.8029 38.7016 40.0012 40.2604C39.4589 41.3447 39.341 41.8869 39.2703 43.8523C39.1759 45.9306 39.2231 46.2695 39.7654 47.399C40.4728 48.8448 42.029 50.5165 43.986 51.9397C45.5894 53.0918 50.7768 56.2093 50.8711 56.0964C50.9183 56.0512 51.1776 55.5768 51.4606 55.0572C53.1111 51.8945 51.5549 46.7891 47.8294 43.2197L46.7448 42.1806L47.2871 41.8417C48.0416 41.3673 50.4703 40.5315 51.5549 40.3507C52.05 40.2604 52.4745 40.0797 52.498 39.9667C52.5452 39.5601 49.5978 37.8432 48.018 37.3688C46.3911 36.8944 45.1414 36.8266 43.5616 37.1655Z" fill="white" style="fill:white;fill-opacity:1;"/>
<path d="M68.3431 42.2482C66.6219 43.4907 62.5191 45.9531 59.6189 47.4666C58.2278 48.2121 57.5204 48.6865 57.5911 48.9124C58.2278 51.1037 58.3457 52.1655 58.2749 54.1535C58.2042 56.0285 58.2278 56.3222 58.4871 55.9607C58.6522 55.7348 60.7036 53.1595 62.9907 50.2453C66.9284 45.2754 70.0172 41.2091 69.8286 41.2091C69.7815 41.2091 69.1212 41.6835 68.3431 42.2482Z" fill="white" style="fill:white;fill-opacity:1;"/>
<path d="M87.0884 45.411C82.7499 48.5285 79.0009 50.6068 72.6581 53.4081C69.923 54.6279 67.5886 55.7575 67.4236 55.9156C67.235 56.1189 67.2585 56.1415 67.6358 56.0286C67.8952 55.9382 68.8855 55.6671 69.8758 55.4186C84.4712 51.6686 87.3478 50.5165 88.4089 47.8734C88.7861 46.902 88.739 44.9818 88.3145 44.7559C88.2202 44.6881 87.6779 45.0044 87.0884 45.411Z" fill="white" style="fill:white;fill-opacity:1;"/>
<path d="M40.5907 56.39C40.685 56.7966 40.7557 58.7168 40.7557 60.637C40.7322 64.7711 40.2842 66.7591 38.6572 70.0121C36.5115 74.3043 33.6113 76.97 29.5086 78.3706C27.9052 78.9354 24.3448 79.0484 22.034 78.6191C20.9258 78.4384 20.0063 78.3029 19.9591 78.3481C19.8884 78.3932 20.4307 78.7321 21.1145 79.1161C25.5945 81.5559 32.2909 81.1945 37.5018 78.2351C38.7987 77.4896 42.1705 74.5077 43.2079 73.1974C44.0332 72.1131 44.0096 72.6552 43.1372 74.3269C40.5671 79.2065 36.3465 82.0077 29.202 83.5213C27.9524 83.7924 31.6071 83.6342 33.517 83.3406C42.1705 81.9851 48.6783 76.4053 51.9321 67.5272C53.1583 64.2063 53.9835 59.5075 53.3233 59.5075C53.1583 59.5075 52.0736 60.1852 50.9183 60.9985L48.8433 62.4895L47.9709 61.7214C47.4993 61.2922 46.0138 60.0723 44.6463 59.0105C43.2787 57.9488 41.8639 56.7515 41.4867 56.3674C40.5907 55.4638 40.3785 55.4864 40.5907 56.39Z" fill="white" style="fill:white;fill-opacity:1;"/>
<path d="M78.9537 57.1807C78.6943 57.2259 77.6333 57.4292 76.6194 57.61C72.0686 58.4458 66.4333 60.7726 61.4817 63.8224C59.5954 64.9971 58.2278 66.0588 58.6051 66.0588C58.6758 66.0588 59.3124 65.8103 60.0434 65.5167C63.0851 64.229 68.6025 62.8736 72.6817 62.4443C73.8842 62.3088 75.016 62.1507 75.1575 62.0603C75.9356 61.6311 79.331 58.9654 80.2505 58.0618L81.288 57.0226L80.3684 57.0452C79.8497 57.0678 79.2131 57.113 78.9537 57.1807Z" fill="white" style="fill:white;fill-opacity:1;"/>
<path d="M11.6952 2.80467C11.7423 9.35594 14.784 15.9072 20.9146 22.707C21.7398 23.6106 22.4 24.4239 22.4 24.4916C22.4 24.6949 19.8535 23.2717 18.4152 22.2552C16.4581 20.8771 13.6051 18.1889 12.1196 16.3138C11.3887 15.3876 10.7284 14.6421 10.6577 14.6421C10.2097 14.6421 11.4594 23.7913 12.4025 27.3832C13.4636 31.4043 16.0337 36.7583 19.3112 41.7508C20.891 44.1454 20.9617 44.281 20.1129 43.5355C19.6177 43.0837 18.7924 42.3834 18.2973 41.9542C16.9061 40.7794 13.5108 36.9165 11.7659 34.5218C6.97939 27.9254 4.31497 20.0413 4.97518 14.4162C5.30529 11.5472 5.98908 9.42371 7.56887 6.37399C8.55918 4.4086 9.36087 3.23389 10.3276 2.21732L11.6716 0.816704L11.6952 2.80467Z" fill="white" style="fill:white;fill-opacity:1;"/>
<path d="M14.6662 24.085C16.1988 25.9826 21.6927 30.9525 26.6443 34.8833C31.3837 38.6333 32.091 39.3336 33.718 41.6153C34.4489 42.677 34.4725 42.6996 33.9302 42.5641C32.6098 42.2026 28.8843 40.2824 26.2906 38.6107C20.443 34.8607 17.4957 31.5173 14.7133 25.4856C14.1239 24.2205 13.6994 23.1362 13.7466 23.091C13.7938 23.0458 14.1946 23.4976 14.6662 24.085Z" fill="#FF0000" style="fill:#FF0000;fill:color(display-p3 1.0000 0.0000 0.0000);fill-opacity:1;"/>
<path d="M3.98487 28.5353C5.09309 31.7431 6.57856 34.7477 8.29982 37.1875C10.1861 39.8757 13.8645 43.942 16.8826 46.6981C18.7217 48.3924 19.3348 49.0249 18.6274 48.5957C18.0379 48.2117 16.2459 47.1725 14.619 46.2689C10.6577 44.0324 9.2194 43.1062 6.72003 41.1182C3.18319 38.317 3.24249e-05 34.7251 3.24249e-05 33.5052C3.24249e-05 33.2341 0.306559 32.4208 0.683821 31.6753C1.03751 30.9524 1.65056 29.3711 2.00424 28.1964C2.35793 27.0217 2.73519 25.9599 2.82951 25.8696C2.92382 25.7566 3.44256 26.9539 3.98487 28.5353Z" fill="white" style="fill:white;fill-opacity:1;"/>
<path d="M23.6969 41.8864C25.4182 43.1289 29.5209 45.5913 32.4211 47.1048C33.8123 47.8503 34.5196 48.3247 34.4489 48.5506C33.8123 50.7419 33.6944 51.8037 33.7651 53.7916C33.8359 55.6667 33.8123 55.9603 33.5529 55.5989C33.3879 55.373 31.3365 52.7977 29.0493 49.8835C25.1116 44.9135 22.0228 40.8472 22.2114 40.8472C22.2586 40.8472 22.9188 41.3216 23.6969 41.8864Z" fill="white" style="fill:white;fill-opacity:1;"/>
<path d="M4.95161 45.0492C9.29014 48.1667 13.0392 50.245 19.3819 53.0462C22.1171 54.2661 24.4514 55.3957 24.6165 55.5538C24.8051 55.7571 24.7815 55.7797 24.4042 55.6667C24.1449 55.5764 23.1546 55.3053 22.1642 55.0568C7.56887 51.3068 4.69224 50.1546 3.63119 47.5115C3.25393 46.5402 3.30108 44.62 3.7255 44.394C3.81982 44.3263 4.36213 44.6425 4.95161 45.0492Z" fill="white" style="fill:white;fill-opacity:1;"/>
<path d="M13.0863 56.8187C13.3457 56.8639 14.4068 57.0672 15.4207 57.2479C19.9714 58.0838 25.6068 60.4106 30.5583 63.4603C32.4447 64.635 33.8122 65.6968 33.435 65.6968C33.3642 65.6968 32.7276 65.4483 31.9967 65.1546C28.955 63.8669 23.4375 62.5115 19.3583 62.0823C18.1558 61.9467 17.024 61.7886 16.8826 61.6982C16.1045 61.269 12.7091 58.6033 11.7895 57.6997L10.752 56.6605L11.6716 56.6831C12.1903 56.7057 12.827 56.7509 13.0863 56.8187Z" fill="white" style="fill:white;fill-opacity:1;"/>
</svg>
