<?xml version="1.0" standalone="no"?>
<!DOCTYPE svg PUBLIC "-//W3C//DTD SVG 20010904//EN"
 "http://www.w3.org/TR/2001/REC-SVG-20010904/DTD/svg10.dtd">
<svg version="1.0" xmlns="http://www.w3.org/2000/svg"
 width="475.000000pt" height="407.000000pt" viewBox="0 0 475.000000 407.000000"
 preserveAspectRatio="xMidYMid meet">

<g transform="translate(0.000000,407.000000) scale(0.100000,-0.100000)" fill="#000000"
stroke="none">
<path d="M798 3812 c-97 -107 -181 -267 -224 -427 -23 -86 -27 -120 -28 -245
0 -132 3 -155 31 -262 80 -294 247 -562 526 -843 65 -66 116 -113 111 -105 -4
8 -39 64 -77 124 -39 60 -100 173 -138 250 -154 322 -220 598 -210 881 2 50 2
50 19 27 119 -161 208 -248 362 -354 128 -87 131 -89 87 -37 -311 367 -437
642 -425 931 2 54 3 98 2 98 -1 0 -17 -17 -36 -38z"/>
<path d="M3874 3754 c-2 -290 -131 -580 -391 -881 -35 -40 -63 -76 -63 -79 0
-9 108 54 169 99 83 61 204 180 267 263 31 41 59 74 62 74 19 0 -34 -405 -74
-564 -45 -178 -154 -415 -293 -636 -67 -106 -70 -112 -34 -79 21 20 56 51 77
70 59 52 203 223 277 329 203 292 316 641 288 890 -14 127 -43 221 -110 356
-42 87 -76 139 -117 184 l-57 62 -1 -88z"/>
<path d="M3748 2812 c-65 -84 -298 -304 -508 -478 -201 -166 -231 -197 -300
-298 -31 -47 -32 -48 -9 -42 56 16 214 101 324 175 248 166 373 314 491 581
25 56 43 104 41 106 -2 2 -19 -18 -39 -44z"/>
<path d="M930 2840 c0 -9 4 -20 9 -25 4 -6 25 -53 45 -105 44 -110 59 -138
137 -241 134 -177 356 -345 614 -463 44 -20 88 -41 99 -47 13 -7 8 4 -15 38
-53 75 -231 249 -369 358 -253 201 -405 345 -497 470 -14 19 -22 24 -23 15z"/>
<path d="M436 2725 c-12 -70 -55 -194 -81 -233 -41 -60 -33 -96 45 -212 87
-128 248 -260 522 -430 84 -52 174 -109 199 -126 31 -21 -1 16 -100 115 -294
292 -451 530 -547 826 -32 99 -32 100 -38 60z"/>
<path d="M4201 2615 c-47 -142 -110 -275 -183 -383 -80 -119 -236 -299 -364
-421 -78 -75 -104 -103 -74 -84 25 17 101 63 170 103 168 99 229 140 335 228
150 124 285 283 285 337 0 12 -13 48 -29 81 -15 32 -41 102 -56 154 -15 52
-31 99 -35 103 -4 5 -26 -48 -49 -118z"/>
<path d="M2314 2249 c-56 -13 -117 -68 -151 -137 -23 -48 -28 -72 -31 -159 -4
-92 -2 -107 21 -157 30 -64 96 -138 179 -201 68 -51 288 -189 292 -184 2 2 13
23 25 46 70 140 4 366 -154 524 l-46 46 23 15 c32 21 135 58 181 66 21 4 39
12 40 17 2 18 -123 94 -190 115 -69 21 -122 24 -189 9z"/>
<path d="M3365 2024 c-73 -55 -247 -164 -370 -231 -59 -33 -89 -54 -86 -64 27
-97 32 -144 29 -232 -3 -83 -2 -96 9 -80 7 10 94 124 191 253 167 220 298 400
290 400 -2 0 -30 -21 -63 -46z"/>
<path d="M1319 2013 c12 -16 47 -64 78 -108 125 -177 184 -247 348 -415 95
-96 191 -199 213 -228 l42 -54 0 87 c0 109 -26 289 -48 335 -13 27 -40 48
-122 96 -58 33 -166 96 -240 138 -74 43 -167 100 -207 127 -40 27 -75 49 -78
49 -4 0 3 -12 14 -27z"/>
<path d="M4160 1884 c-184 -138 -343 -230 -612 -354 -116 -54 -215 -104 -222
-111 -8 -9 -7 -10 9 -5 11 4 53 16 95 27 619 166 741 217 786 334 16 43 14
128 -4 138 -4 3 -27 -11 -52 -29z"/>
<path d="M492 1880 c-6 -11 -12 -45 -12 -76 0 -52 3 -59 37 -90 65 -60 244
-138 453 -197 163 -47 433 -117 436 -114 2 1 -43 22 -99 46 -243 103 -550 274
-707 392 -43 33 -82 59 -87 59 -4 0 -14 -9 -21 -20z"/>
<path d="M2188 1398 c4 -18 7 -103 7 -188 -1 -183 -20 -271 -89 -415 -91 -190
-214 -308 -388 -370 -68 -25 -219 -30 -317 -11 -47 8 -86 14 -88 12 -3 -2 20
-17 49 -34 190 -108 474 -92 695 39 55 33 198 165 242 223 35 48 34 24 -3 -50
-109 -216 -288 -340 -591 -407 -53 -12 102 -5 183 8 367 60 643 307 781 700
52 147 87 355 59 355 -7 0 -53 -30 -102 -66 l-88 -66 -37 34 c-20 19 -83 73
-141 120 -58 47 -118 100 -134 117 -38 40 -47 39 -38 -1z"/>
<path d="M769 1373 c15 -29 63 -69 109 -92 25 -13 52 -38 67 -61 39 -61 72
-74 174 -66 106 9 297 41 337 57 33 13 57 6 -241 69 -160 34 -354 82 -399 100
-42 16 -58 13 -47 -7z"/>
<path d="M3815 1363 c-11 -2 -56 -11 -99 -19 -193 -37 -432 -140 -642 -275
-80 -52 -138 -99 -122 -99 3 0 30 11 61 24 129 57 363 117 536 136 51 6 99 13
105 17 33 19 177 137 216 177 l44 46 -39 -1 c-22 -1 -49 -3 -60 -6z"/>
<path d="M1445 1103 c-43 -10 -98 -12 -195 -9 l-135 5 60 -29 c95 -46 140 -55
275 -55 108 0 133 4 185 24 54 22 58 25 35 32 -14 3 -49 16 -78 28 -59 24 -64
24 -147 4z"/>
<path d="M1724 944 c-83 -47 -187 -82 -322 -108 -62 -12 -114 -26 -115 -32 -4
-20 79 -49 154 -52 127 -6 221 29 334 124 49 42 65 62 63 78 -5 33 -45 30
-114 -10z"/>
<path d="M1835 774 c-56 -51 -204 -146 -265 -170 -22 -9 -37 -21 -34 -26 11
-18 119 -2 179 26 83 38 113 63 139 114 21 42 41 103 34 102 -2 -1 -25 -21
-53 -46z"/>
</g>
</svg>
