<svg width="95" height="87" viewBox="0 0 95 87" fill="none" xmlns="http://www.w3.org/2000/svg">
<path d="M82.156 2.45318C82.1078 9.29348 78.9975 16.1338 72.7288 23.2335C71.8849 24.177 71.2098 25.0262 71.2098 25.0969C71.2098 25.3092 73.8138 23.8232 75.2845 22.7618C77.2857 21.323 80.203 18.5161 81.722 16.5583C82.4694 15.5913 83.1445 14.8129 83.2169 14.8129C83.675 14.8129 82.3971 24.3657 81.4327 28.1161C80.3477 32.3146 77.7197 37.9048 74.3683 43.1176C72.7529 45.6178 72.6806 45.7593 73.5486 44.9809C74.0549 44.5092 74.8987 43.778 75.4051 43.3298C76.8276 42.1033 80.2995 38.0699 82.0837 35.5696C86.9781 28.6822 89.7026 20.4502 89.0275 14.577C88.6899 11.5814 87.9907 9.36424 86.3753 6.17996C85.3627 4.12788 84.5429 2.90134 83.5544 1.83991L82.1801 0.377506L82.156 2.45318Z" fill="black" style="fill:black;fill-opacity:1;"/>
<path d="M79.1181 24.6724C77.5509 26.6538 71.9332 31.8429 66.87 35.9471C62.0238 39.8626 61.3004 40.5938 59.6368 42.9761C58.8894 44.0847 58.8653 44.1083 59.4198 43.9668C60.77 43.5894 64.5795 41.5845 67.2316 39.839C73.211 35.9235 76.2248 32.4326 79.0699 26.1348C79.6726 24.8139 80.1066 23.6818 80.0584 23.6346C80.0102 23.5874 79.6003 24.0592 79.1181 24.6724Z" fill="#FF0000" style="fill:#FF0000;fill:color(display-p3 1.0000 0.0000 0.0000);fill-opacity:1;"/>
<path d="M90.0401 29.3191C88.9069 32.6684 87.388 35.8055 85.6279 38.353C83.6991 41.1598 79.9378 45.4055 76.8517 48.2832C74.9711 50.0522 74.3442 50.7127 75.0675 50.2645C75.6703 49.8635 77.5027 48.7785 79.1663 47.835C83.2169 45.4999 84.6876 44.5328 87.2433 42.4571C90.8599 39.5323 94.1148 35.782 94.1148 34.5082C94.1148 34.2252 93.8014 33.3761 93.4156 32.5977C93.0539 31.8429 92.4271 30.1918 92.0654 28.9653C91.7038 27.7387 91.318 26.6301 91.2215 26.5358C91.1251 26.4178 90.5947 27.668 90.0401 29.3191Z" fill="black" style="fill:black;fill-opacity:1;"/>
<path d="M44.5437 37.952C43.1935 38.2586 41.7228 39.5559 40.903 41.1834C40.3485 42.3156 40.2279 42.8817 40.1556 44.9338C40.0591 47.1038 40.1074 47.4576 40.6619 48.637C41.3852 50.1466 42.9765 51.892 44.9777 53.378C46.6172 54.581 51.9215 57.836 52.0179 57.7181C52.0662 57.6709 52.3314 57.1756 52.6207 56.6331C54.3084 53.3308 52.7171 48.0001 48.9077 44.2734L47.7986 43.1883L48.3532 42.8345C49.1247 42.3392 51.6081 41.4665 52.7171 41.2778C53.2235 41.1834 53.6575 40.9947 53.6816 40.8768C53.7298 40.4522 50.716 38.6596 49.1006 38.1643C47.437 37.6689 46.1591 37.5982 44.5437 37.952Z" fill="black" style="fill:black;fill-opacity:1;"/>
<path d="M69.8838 43.2592C68.1237 44.5565 63.9285 47.1275 60.9629 48.7078C59.5404 49.4862 58.8171 49.9815 58.8894 50.2174C59.5404 52.5054 59.6609 53.614 59.5886 55.6896C59.5163 57.6474 59.5404 57.954 59.8056 57.5766C59.9744 57.3407 62.072 54.6518 64.4107 51.609C68.4371 46.4198 71.5956 42.1741 71.4027 42.1741C71.3545 42.1741 70.6794 42.6695 69.8838 43.2592Z" fill="black" style="fill:black;fill-opacity:1;"/>
<path d="M89.0516 46.5614C84.6153 49.8164 80.7817 51.9865 74.296 54.9113C71.4992 56.185 69.1122 57.3644 68.9435 57.5295C68.7506 57.7418 68.7747 57.7653 69.1605 57.6474C69.4257 57.5531 70.4383 57.27 71.451 57.0106C86.3753 53.0951 89.3168 51.8921 90.4018 49.1324C90.7876 48.1182 90.7393 46.1133 90.3053 45.8774C90.2089 45.8066 89.6544 46.1368 89.0516 46.5614Z" fill="black" style="fill:black;fill-opacity:1;"/>
<path d="M41.5057 58.0248C41.6022 58.4493 41.6745 60.4543 41.6745 62.4592C41.6504 66.7756 41.1923 68.8513 39.5287 72.2479C37.3346 76.7294 34.369 79.5127 30.1738 80.9751C28.5343 81.5648 24.8936 81.6828 22.5308 81.2346C21.3976 81.0459 20.4573 80.9044 20.4091 80.9516C20.3367 80.9987 20.8913 81.3525 21.5905 81.7535C26.1715 84.3009 33.0188 83.9235 38.3473 80.8336C39.6733 80.0552 43.1211 76.9417 44.182 75.5737C45.0259 74.4415 45.0018 75.0076 44.1097 76.753C41.4816 81.8479 37.1658 84.7727 29.8604 86.353C28.5825 86.6361 32.3196 86.471 34.2726 86.1643C43.1211 84.7491 49.7756 78.9231 53.1029 69.6533C54.3566 66.1859 55.2005 61.2798 54.5254 61.2798C54.3566 61.2798 53.2475 61.9874 52.0661 62.8366L49.9444 64.3933L49.0523 63.5914C48.5701 63.1432 47.0511 61.8695 45.6527 60.7609C44.2543 59.6523 42.8077 58.4022 42.4219 58.0012C41.5057 57.0577 41.2887 57.0813 41.5057 58.0248Z" fill="black" style="fill:black;fill-opacity:1;"/>
<path d="M80.7335 58.8503C80.4683 58.8975 79.3833 59.1098 78.3466 59.2985C73.6933 60.1712 67.9309 62.6007 62.8677 65.785C60.9388 67.0115 59.5404 68.1201 59.9262 68.1201C59.9985 68.1201 60.6495 67.8607 61.3969 67.554C64.5072 66.2096 70.149 64.7943 74.3201 64.3462C75.5498 64.2046 76.7071 64.0395 76.8517 63.9452C77.6474 63.497 81.1193 60.7137 82.0596 59.7702L83.1205 58.6852L82.1801 58.7088C81.6497 58.7324 80.9987 58.7796 80.7335 58.8503Z" fill="black" style="fill:black;fill-opacity:1;"/>
<path d="M11.9588 2.07525C12.007 8.91555 15.1173 15.7558 21.386 22.8556C22.2299 23.7991 22.905 24.6482 22.905 24.719C22.905 24.9313 20.301 23.4453 18.8303 22.3839C16.8291 20.945 13.9118 18.1382 12.3928 16.1804C11.6454 15.2133 10.9703 14.435 10.898 14.435C10.4399 14.435 11.7177 23.9878 12.6821 27.7381C13.7671 31.9367 16.3951 37.5268 19.7465 42.7396C21.3619 45.2399 21.4342 45.3814 20.5663 44.603C20.0599 44.1313 19.2161 43.4001 18.7097 42.9519C17.2872 41.7254 13.8153 37.692 12.0311 35.1917C7.13672 28.3042 4.41223 20.0723 5.08733 14.1991C5.42487 11.2035 6.12408 8.98631 7.73948 5.80203C8.75212 3.74995 9.57187 2.52341 10.5604 1.46198L11.9347 -0.000423431L11.9588 2.07525Z" fill="black" style="fill:black;fill-opacity:1;"/>
<path d="M14.9967 24.2945C16.5639 26.2758 22.1816 31.465 27.2448 35.5692C32.091 39.4847 32.8144 40.2159 34.478 42.5982C35.2254 43.7068 35.2495 43.7304 34.695 43.5888C33.3448 43.2114 29.5353 41.2065 26.8832 39.4611C20.9038 35.5456 17.89 32.0547 15.0449 25.7569C14.4422 24.436 14.0082 23.3038 14.0564 23.2567C14.1046 23.2095 14.5145 23.6812 14.9967 24.2945Z" fill="#FF0000" style="fill:#FF0000;fill:color(display-p3 1.0000 0.0000 0.0000);fill-opacity:1;"/>
<path d="M4.07468 28.9411C5.20787 32.2905 6.72683 35.4276 8.4869 37.975C10.4157 40.7819 14.177 45.0276 17.2631 47.9053C19.1437 49.6743 19.7706 50.3347 19.0473 49.8866C18.4445 49.4856 16.6121 48.4006 14.9485 47.4571C10.8979 45.122 9.4272 44.1549 6.87149 42.0792C3.25492 39.1544 7.62939e-06 35.404 7.62939e-06 34.1303C7.62939e-06 33.8473 0.313444 32.9981 0.699211 32.2198C1.06087 31.465 1.68774 29.8139 2.0494 28.5873C2.41105 27.3608 2.79682 26.2522 2.89326 26.1578C2.98971 26.0399 3.52014 27.29 4.07468 28.9411Z" fill="black" style="fill:black;fill-opacity:1;"/>
<path d="M24.231 42.8812C25.9911 44.1785 30.1863 46.7495 33.1519 48.3299C34.5744 49.1083 35.2977 49.6036 35.2254 49.8395C34.5744 52.1274 34.4539 53.236 34.5262 55.3117C34.5985 57.2694 34.5744 57.5761 34.3092 57.1987C34.1404 56.9628 32.0428 54.2739 29.7041 51.2311C25.6777 46.0419 22.5192 41.7962 22.7121 41.7962C22.7603 41.7962 23.4354 42.2915 24.231 42.8812Z" fill="black" style="fill:black;fill-opacity:1;"/>
<path d="M5.06321 46.1835C9.49953 49.4385 13.3331 51.6085 19.8188 54.5334C22.6156 55.8071 25.0026 56.9864 25.1713 57.1515C25.3642 57.3638 25.3401 57.3874 24.9543 57.2695C24.6891 57.1751 23.6765 56.8921 22.6639 56.6326C7.73947 52.7171 4.79799 51.5142 3.71302 48.7545C3.32725 47.7402 3.37547 45.7353 3.80946 45.4995C3.9059 45.4287 4.46044 45.7589 5.06321 46.1835Z" fill="black" style="fill:black;fill-opacity:1;"/>
<path d="M13.3813 58.4724C13.6465 58.5196 14.7315 58.7319 15.7682 58.9206C20.4215 59.7933 26.184 62.2228 31.2472 65.4071C33.176 66.6336 34.5744 67.7422 34.1886 67.7422C34.1163 67.7422 33.4653 67.4827 32.7179 67.1761C29.6076 65.8316 23.9658 64.4164 19.7947 63.9682C18.565 63.8267 17.4077 63.6616 17.2631 63.5672C16.4674 63.1191 12.9955 60.3358 12.0552 59.3923L10.9944 58.3073L11.9347 58.3309C12.4651 58.3545 13.1161 58.4016 13.3813 58.4724Z" fill="black" style="fill:black;fill-opacity:1;"/>
</svg>
