<?xml version="1.0" standalone="no"?>
<!DOCTYPE svg PUBLIC "-//W3C//DTD SVG 20010904//EN"
 "http://www.w3.org/TR/2001/REC-SVG-20010904/DTD/svg10.dtd">
<svg version="1.0" xmlns="http://www.w3.org/2000/svg"
 width="392.000000pt" height="669.000000pt" viewBox="0 0 392.000000 669.000000"
 preserveAspectRatio="xMidYMid meet">

<g transform="translate(0.000000,669.000000) scale(0.100000,-0.100000)"
fill="#000000" stroke="none">
<path d="M1872 6528 c-95 -14 -169 -65 -207 -141 -19 -41 -26 -75 -31 -157 -6
-79 -12 -111 -26 -131 -17 -22 -18 -31 -8 -75 12 -53 33 -92 61 -112 26 -18
39 -75 39 -169 l0 -82 -37 -31 c-55 -45 -283 -154 -388 -185 -49 -15 -107 -34
-128 -43 -50 -20 -143 -122 -157 -170 -6 -20 -15 -95 -20 -167 -12 -159 -10
-150 -75 -315 -29 -74 -87 -220 -128 -325 -85 -215 -90 -232 -112 -370 -9 -55
-50 -242 -92 -415 -75 -309 -76 -317 -77 -450 l-1 -135 45 -89 c53 -105 93
-154 114 -137 11 9 51 18 93 20 19 1 45 48 39 69 -4 11 -33 41 -66 66 -52 41
-60 52 -60 81 0 34 32 149 50 175 14 23 40 2 75 -61 37 -65 72 -86 112 -67 14
7 29 22 33 33 10 26 -23 131 -78 250 -22 50 -45 117 -50 150 l-10 60 119 230
c135 262 147 292 156 387 5 61 11 74 49 124 44 56 138 234 190 359 l29 70 11
-122 c9 -108 13 -126 39 -163 16 -22 46 -55 67 -71 l38 -31 0 -79 c0 -97 -20
-201 -65 -334 -44 -128 -65 -212 -114 -463 -113 -563 -119 -700 -51 -1039 47
-230 38 -356 -42 -588 -39 -113 -42 -128 -46 -255 -3 -120 1 -167 38 -420 39
-265 42 -296 37 -440 -5 -182 -12 -204 -93 -298 -90 -106 -92 -133 -10 -157
80 -25 139 -29 212 -15 73 14 104 36 104 75 0 18 14 35 50 62 l49 38 -5 70
c-3 39 -10 116 -16 173 -20 187 3 386 68 599 89 286 86 272 81 368 -3 50 -11
134 -18 189 -13 95 -13 100 10 160 13 33 28 84 34 111 5 28 45 226 89 440 44
215 83 431 86 480 l7 90 40 3 41 3 12 -95 c22 -174 180 -911 214 -994 l30 -77
-13 -125 c-22 -201 -18 -261 34 -465 77 -308 81 -337 82 -641 l1 -272 36 -40
c20 -22 45 -60 56 -85 18 -40 26 -47 64 -58 24 -7 79 -13 123 -13 66 -1 89 4
130 24 68 34 69 53 3 130 -112 132 -121 160 -121 365 -1 102 8 180 37 365 33
204 38 259 39 420 l2 185 -47 109 -48 109 0 162 c0 135 4 185 26 296 38 190
38 426 0 649 -55 320 -139 728 -168 810 -68 191 -80 243 -85 352 l-6 107 66
64 c72 70 73 72 85 227 l8 95 46 -96 c60 -126 152 -290 185 -330 22 -26 29
-48 39 -130 11 -91 16 -108 82 -236 38 -76 97 -187 131 -247 56 -101 61 -114
61 -171 0 -52 -6 -72 -35 -126 -113 -204 -131 -294 -66 -317 39 -14 65 6 112
83 46 75 61 72 92 -17 38 -108 40 -117 28 -146 -7 -15 -30 -40 -51 -55 -41
-29 -54 -57 -48 -98 2 -20 10 -25 49 -29 26 -3 54 -12 62 -19 25 -20 61 24
118 146 l50 106 -10 136 c-5 75 -19 170 -30 211 -88 334 -124 487 -150 625
-24 131 -39 185 -84 295 -31 74 -80 203 -110 285 -30 83 -67 177 -83 210 -25
54 -28 75 -34 200 -6 125 -9 147 -35 203 -46 102 -109 148 -270 197 -134 41
-327 142 -397 208 -24 22 -28 34 -28 80 0 65 25 155 51 183 22 24 59 114 59
144 0 12 -7 32 -16 45 -10 15 -19 65 -25 132 -12 135 -21 161 -67 208 -69 70
-169 100 -280 83z m183 -63 c101 -49 125 -99 125 -261 0 -81 3 -104 16 -115
23 -19 12 -82 -23 -133 -16 -22 -35 -59 -41 -81 -14 -51 -75 -123 -119 -141
-42 -18 -115 -18 -156 0 -43 18 -102 82 -123 131 -9 22 -32 61 -50 87 -52 71
-60 102 -35 134 18 22 21 41 21 114 0 111 20 170 76 226 77 78 199 93 309 39z
m-158 -791 c47 -9 99 3 161 36 l52 28 0 -111 c1 -87 5 -124 21 -167 11 -30 22
-62 25 -71 5 -14 -8 -18 -76 -29 -50 -8 -93 -21 -114 -35 l-33 -22 -27 20
c-32 23 -122 47 -178 47 -21 0 -38 5 -38 10 0 6 14 36 30 67 29 53 30 61 30
179 l0 123 57 -35 c31 -18 71 -37 90 -40z m-187 -106 c0 -39 -39 -127 -69
-157 -16 -16 -33 -21 -68 -21 -66 1 -177 23 -176 35 0 5 47 35 104 66 57 30
122 67 144 82 54 35 65 34 65 -5z m548 -22 c54 -30 123 -67 155 -82 31 -16 57
-32 57 -36 0 -5 -11 -13 -25 -18 -31 -12 -193 -28 -217 -22 -24 6 -68 102 -75
163 -3 27 -2 49 2 49 4 0 50 -24 103 -54z m-903 -166 l29 -30 -46 -48 c-66
-67 -87 -117 -103 -239 -8 -59 -20 -112 -27 -119 -19 -18 -103 -44 -143 -44
-48 0 -55 19 -55 149 0 85 4 123 19 161 39 102 103 157 216 184 81 19 78 20
110 -14z m1350 -29 c56 -31 108 -99 126 -164 11 -40 8 -281 -3 -292 -9 -9
-157 24 -183 41 -27 18 -28 21 -43 129 -12 88 -43 161 -99 233 -48 63 -47 67
21 97 36 15 102 -1 181 -44z m-1029 -21 c89 -11 173 -24 186 -29 34 -13 38
-42 38 -307 0 -200 -2 -224 -18 -244 -17 -21 -34 -25 -168 -38 -148 -14 -149
-14 -209 8 -83 32 -173 122 -204 205 -19 49 -22 74 -19 140 5 96 23 134 104
228 54 63 60 66 93 62 20 -3 109 -14 197 -25z m777 -45 c120 -149 142 -283 69
-418 -33 -61 -79 -102 -158 -139 l-63 -29 -138 16 c-225 28 -213 11 -213 296
l0 227 25 30 c22 26 37 32 118 46 148 27 209 34 262 32 48 -1 51 -3 98 -61z
m-1173 -461 c0 -49 -33 -140 -97 -268 -83 -167 -124 -216 -183 -216 -44 0
-133 43 -159 76 -19 25 -19 25 3 92 37 107 127 331 135 337 5 2 48 9 97 15 57
6 105 18 134 33 l45 23 13 -29 c6 -16 12 -45 12 -63z m1477 36 c39 -6 80 -10
90 -8 23 4 48 -48 123 -257 37 -103 55 -166 49 -176 -11 -22 -117 -71 -165
-77 -38 -4 -43 -1 -78 39 -62 73 -206 380 -206 441 0 10 6 34 14 53 l15 34 43
-19 c24 -11 76 -24 115 -30z m-1177 -198 c82 -5 280 22 326 44 34 16 38 16 66
-1 22 -12 76 -22 197 -32 l166 -16 62 32 c35 17 64 31 67 31 2 0 7 -29 11 -64
10 -99 -10 -135 -132 -236 -54 -45 -116 -91 -139 -102 l-40 -20 -122 25 -121
24 -125 -30 -125 -30 -85 67 c-192 150 -205 170 -206 308 l0 67 68 -32 c48
-22 86 -33 132 -35z m-696 -332 c42 -22 88 -40 102 -40 23 0 24 -2 24 -82 l0
-81 -116 -221 c-63 -122 -119 -225 -124 -230 -9 -9 -140 -9 -149 0 -2 2 8 57
23 122 15 64 38 180 51 257 13 77 33 165 44 195 19 51 56 120 64 120 2 0 38
-18 81 -40z m2181 3 c34 -52 59 -134 90 -298 15 -77 37 -187 51 -244 13 -58
21 -108 17 -112 -5 -5 -34 -11 -65 -15 l-57 -7 -34 54 c-64 101 -195 344 -211
392 -9 26 -16 79 -16 116 l0 69 33 6 c17 4 59 22 92 40 33 19 63 34 67 35 4 0
19 -16 33 -36z m-1440 -62 l41 -29 99 24 c123 30 180 30 318 2 l108 -21 59 41
c33 23 64 42 70 42 6 0 10 -25 10 -60 0 -33 9 -102 21 -153 l20 -92 -27 -20
c-89 -67 -97 -81 -172 -306 -39 -118 -83 -261 -97 -318 -29 -115 -46 -155 -70
-165 -26 -10 -135 -7 -155 4 -13 7 -28 40 -44 93 -80 267 -98 324 -139 441
-61 171 -82 201 -185 262 -2 1 8 61 22 133 14 72 26 145 26 162 l0 31 28 -21
c15 -12 45 -34 67 -50z m-54 -401 c47 -97 150 -407 198 -596 6 -23 25 -58 41
-79 36 -45 38 -88 15 -235 -18 -105 -134 -671 -141 -682 -3 -4 -25 7 -49 24
-38 27 -55 32 -122 36 -77 4 -78 4 -125 -33 -50 -39 -68 -39 -68 2 0 14 -13
85 -29 157 -24 107 -30 164 -34 312 -3 100 -2 225 3 278 17 174 152 822 185
886 l16 31 42 -23 c32 -18 48 -36 68 -78z m857 24 c25 -74 53 -208 132 -632
44 -238 51 -289 56 -448 5 -175 4 -183 -29 -347 -19 -92 -39 -173 -46 -180 -9
-9 -16 -9 -29 1 -63 46 -79 52 -132 52 -71 0 -127 -16 -168 -47 -18 -14 -35
-23 -37 -21 -5 5 -142 675 -155 758 -16 104 -13 129 15 152 35 27 48 57 80
178 31 122 132 431 165 508 17 39 33 59 64 77 22 14 45 23 51 22 5 -2 20 -35
33 -73z m-1724 -273 c27 -6 31 -11 46 -81 9 -41 37 -122 63 -180 58 -132 76
-195 59 -212 -16 -16 -36 2 -69 64 -29 52 -86 100 -109 91 -19 -7 -60 -97 -80
-176 -16 -65 -16 -68 5 -116 22 -51 29 -131 11 -131 -5 0 -33 46 -61 102 l-51
102 4 120 c3 99 11 149 42 274 l39 152 36 -1 c20 -1 49 -4 65 -8z m2576 -113
c38 -144 49 -220 50 -343 0 -85 -2 -95 -42 -182 -24 -51 -46 -92 -50 -93 -13
0 -8 93 6 125 11 26 10 40 -6 100 -21 76 -74 195 -87 195 -22 0 -89 -63 -116
-109 -31 -54 -65 -70 -65 -30 0 31 45 138 96 228 36 63 47 94 51 141 6 64 13
75 53 83 79 14 74 19 110 -115z m-2546 -594 c7 -17 -23 -27 -40 -13 -8 6 -14
20 -14 30 0 16 3 17 24 7 14 -6 27 -16 30 -24z m2456 17 c0 -23 -28 -54 -41
-46 -14 9 -11 26 8 47 21 23 33 23 33 -1z m-1623 -642 c43 -16 80 -56 93 -102
10 -39 9 -48 -23 -122 -41 -96 -66 -117 -146 -123 -70 -5 -119 9 -152 44 -21
23 -24 34 -23 103 2 112 5 120 81 169 71 44 114 52 170 31z m914 -26 l69 -38
0 -100 c0 -60 -5 -110 -13 -125 -18 -36 -73 -60 -137 -60 -85 0 -118 22 -159
105 -62 127 -45 205 55 240 66 24 109 19 185 -22z m-1075 -363 c34 -10 54 -9
119 4 43 9 79 15 81 13 2 -1 10 -50 20 -107 24 -154 17 -225 -44 -411 -64
-195 -92 -330 -99 -481 -3 -65 -10 -121 -15 -124 -5 -3 -30 1 -56 10 -26 8
-63 16 -82 18 l-34 3 -44 290 c-38 250 -44 314 -45 465 -2 187 1 206 59 338
l24 54 37 -30 c21 -16 56 -35 79 -42z m1204 -21 c17 -45 36 -107 42 -138 17
-92 1 -311 -45 -626 l-43 -290 -39 -6 c-22 -3 -63 -13 -91 -21 l-52 -16 -6 76
c-17 195 -42 342 -88 522 -56 220 -65 312 -46 440 l13 85 50 -2 c28 -1 78 -3
112 -5 56 -3 65 0 105 29 23 17 46 32 50 32 3 1 21 -35 38 -80z m-1180 -1130
c47 -20 49 -23 59 -73 5 -28 13 -77 16 -110 l7 -59 -47 -47 c-25 -25 -49 -60
-54 -75 -10 -40 -71 -58 -162 -51 -66 6 -129 23 -129 34 0 4 29 45 65 91 68
88 79 115 90 221 10 103 10 103 61 96 25 -3 67 -15 94 -27z m1140 11 c5 -8 13
-52 19 -97 12 -95 25 -125 92 -205 55 -67 74 -97 64 -106 -11 -12 -228 -14
-257 -3 -17 6 -33 24 -42 45 -8 18 -31 52 -51 75 l-37 41 7 92 c10 124 14 133
72 151 93 30 121 31 133 7z"/>
</g>
</svg>
